<svg xmlns="http://www.w3.org/2000/svg" viewBox="0 0 679.45 292.22"><defs><style>.o{fill:#fbb03b;}.m{fill:#562b3c;}.w{fill:#fff;}</style></defs><path class="o" d="M669.74,105.24a72.43,72.43,0,0,1,9.57,30.91c1,14.45-3,28.88-9,42-21,45.85-66.14,76.79-114,92C430.51,310.32,298,289.39,173.53,256.82c-39.05-10.22-74.89-29.71-115.05-35.44C32,217.59-2.86,206.67.19,171.6c1.73-20,15.83-36.45,30.36-50.14C107.89,48.55,213.32,15.11,317,4.52,422.05-6.2,535-1.62,625.26,60.13,642.66,72,659.56,87.16,669.74,105.24Z"/><path class="m" d="M161.31,79.65l-39.64,95.66C112.77,197.15,97.6,210.7,78.39,216c-3.24.81-5.46-.4-6.47-3.44l-4.65-13.75c-1.42-3.44,0-5.46,3.24-6.47,13.15-4.45,22.65-14.16,27.71-28.72L63.83,79.65c-1.42-3.64.2-5.87,4-5.87h18c2.83,0,5.06,1.21,6.07,3.84L112.37,128l20.43-50.36a5.89,5.89,0,0,1,5.86-3.84h18.4C160.9,73.78,162.52,76,161.31,79.65Z"/><path class="m" d="M271.14,79.25v90.2a5.44,5.44,0,0,1-5.46,5.46H253.55a4.58,4.58,0,0,1-4.65-4.65v-3.84A50.29,50.29,0,0,1,219,176.52a52.18,52.18,0,1,1,0-104.36,50.92,50.92,0,0,1,29.73,9.91V78.44a4.58,4.58,0,0,1,4.65-4.65h12.34A5.44,5.44,0,0,1,271.14,79.25Zm-26.09,44.9A25.49,25.49,0,1,0,219.57,150,25.38,25.38,0,0,0,245.05,124.14Z"/><path class="m" d="M440.33,115.85v53.8a4.89,4.89,0,0,1-5.26,5.26h-16c-3.44,0-5.46-2-5.46-5.26v-53.8a17.29,17.29,0,1,0-34.58,0v53.8a4.89,4.89,0,0,1-5.26,5.26h-16a4.89,4.89,0,0,1-5.26-5.26v-53.8a17.39,17.39,0,0,0-34.79,0v53.8c0,3.24-1.82,5.26-5.26,5.26H296.74a4.89,4.89,0,0,1-5.26-5.26V79a4.89,4.89,0,0,1,5.26-5.26h11.12c2.83,0,4.65,1.62,4.65,4.65v2.22a38.76,38.76,0,0,1,24.27-8.49c11.73,0,21.44,5.06,28.92,12.94a43.36,43.36,0,0,1,30.94-12.94A43.89,43.89,0,0,1,440.33,115.85Z"/><path class="m" d="M608.51,115.85v53.8a4.89,4.89,0,0,1-5.26,5.26h-16c-3.44,0-5.46-2-5.46-5.26v-53.8a17.29,17.29,0,1,0-34.58,0v53.8A4.89,4.89,0,0,1,542,174.9H526a4.89,4.89,0,0,1-5.26-5.26v-53.8a17.39,17.39,0,1,0-34.79,0v53.8c0,3.24-1.82,5.26-5.26,5.26H464.92a4.89,4.89,0,0,1-5.26-5.26V79a4.89,4.89,0,0,1,5.26-5.26H476c2.83,0,4.65,1.62,4.65,4.65v2.22A38.77,38.77,0,0,1,505,72.17c11.73,0,21.44,5.06,28.92,12.94a43.36,43.36,0,0,1,30.94-12.94A43.89,43.89,0,0,1,608.51,115.85Z"/><path class="w" d="M178.7,192.43l13.87,21.41,13.87-21.41h6.75V235h-7.3V206.42l-13.32,20.26-13.32-20.26V235h-7.3V192.43Z"/><path class="w" d="M249.4,220.6A15.39,15.39,0,1,1,234,205.45,15.17,15.17,0,0,1,249.4,220.6Zm-7.42,0c0-4.5-3-8.33-8-8.33s-8,3.83-8,8.33,3,8.33,8,8.33S242,225.1,242,220.6Z"/><path class="w" d="M279.93,216.34V235h-7.3V218.16c0-4.14-2.55-5.9-5.72-5.9-3.77,0-5.72,3.71-5.72,3.71v19h-7.3V206.18h6.81v4.2a10,10,0,0,1,8.64-4.93C274.94,205.45,279.93,209.4,279.93,216.34Z"/><path class="w" d="M313.31,220.48c0,.55,0,1.64-.06,2.74H291.72a8.23,8.23,0,0,0,8.09,5.84,11.6,11.6,0,0,0,7.91-2.92l3.65,5.48a18.47,18.47,0,0,1-11.56,4.14,15.16,15.16,0,0,1-15.51-15.15c0-8.46,6.14-15.15,14.48-15.15C306.68,205.45,313.31,211.59,313.31,220.48Zm-7.3-2.56c-.12-2.49-2.43-5.84-7.24-5.84s-6.81,3.29-7.06,5.84Z"/><path class="w" d="M317.13,241s1.95,1.89,3.83,1.89c2.49,0,3.53-.73,4.93-4.26l1.16-3L313,206.18h8.09l9.73,21.11,7.6-21.11h7.85l-14,35.29c-2.49,6.33-6.57,8.27-10.83,8.27a12.77,12.77,0,0,1-7.73-3Z"/><path class="w" d="M375.54,192.43l13.87,21.41,13.87-21.41H410V235h-7.3V206.42l-13.32,20.26-13.32-20.26V235h-7.3V192.43Z"/><path class="w" d="M445.55,206.18V235H438.8v-3.77a10,10,0,0,1-8.7,4.5c-7.48,0-14.05-6.27-14.05-15.15s6.57-15.15,14.05-15.15a10.33,10.33,0,0,1,8.7,4.5v-3.77Zm-7.3,10.1a8.07,8.07,0,0,0-6.81-4c-4.93,0-8,3.59-8,8.33s3,8.33,8,8.33a8.07,8.07,0,0,0,6.81-4Z"/><path class="w" d="M478.06,216.34V235h-7.3V218.16c0-4.14-2.55-5.9-5.72-5.9-3.77,0-5.72,3.71-5.72,3.71v19H452V206.18h6.81v4.2a10,10,0,0,1,8.64-4.93C473.07,205.45,478.06,209.4,478.06,216.34Z"/><path class="w" d="M512.19,206.18V235h-6.75v-3.77a10,10,0,0,1-8.7,4.5c-7.48,0-14.05-6.27-14.05-15.15s6.57-15.15,14.05-15.15a10.33,10.33,0,0,1,8.7,4.5v-3.77Zm-7.3,10.1a8.07,8.07,0,0,0-6.81-4c-4.93,0-8,3.59-8,8.33s3,8.33,8,8.33a8.07,8.07,0,0,0,6.81-4Z"/><path class="w" d="M531,235.75c-7.48,0-14.05-6.27-14.05-15.15s6.57-15.15,14.05-15.15a10.33,10.33,0,0,1,8.7,4.5v-3.77h6.75v29.08c0,10-7.42,14.48-15.51,14.48a20.75,20.75,0,0,1-13.69-5.48l4.14-5.6s4,4.26,9.55,4.26,8.21-3.1,8.21-7.42V232A10.3,10.3,0,0,1,531,235.75Zm8.15-19.47a8,8,0,0,0-6.87-4c-4.93,0-7.91,3.59-7.91,8.33s3,8.33,7.91,8.33a8.11,8.11,0,0,0,6.88-4Z"/><path class="w" d="M580,220.48c0,.55,0,1.64-.06,2.74H558.44a8.23,8.23,0,0,0,8.09,5.84,11.61,11.61,0,0,0,7.91-2.92l3.65,5.48a18.47,18.47,0,0,1-11.56,4.14A15.16,15.16,0,0,1,551,220.6c0-8.46,6.14-15.15,14.48-15.15C573.41,205.45,580,211.59,580,220.48Zm-7.3-2.56c-.12-2.49-2.43-5.84-7.24-5.84s-6.81,3.29-7.06,5.84Z"/><path class="w" d="M604.41,206.36l-2.55,6.57a8.39,8.39,0,0,0-3.47-.67,7.63,7.63,0,0,0-6.45,3.89V235h-7.3V206.18h6.94v4.2s2.49-4.93,7.85-4.93A15.69,15.69,0,0,1,604.41,206.36Z"/></svg>