<svg xmlns="http://www.w3.org/2000/svg" viewBox="0 0 315.92 135.11"><defs><style>.o{fill:#fbb03b;}.m{fill:#562b3c;}</style></defs><path class="o" d="M311.41,48.61a33.33,33.33,0,0,1,4.44,14.29c.44,6.68-1.4,13.35-4.19,19.44-9.75,21.2-30.77,35.52-53,42.58-58.51,18.56-120.12,8.91-178-6.12-18.16-4.72-34.81-13.72-53.49-16.36-12.31-1.74-28.52-6.79-27.09-23C.9,70.19,7.46,62.57,14.22,56.23c36-33.72,85-49.21,133.21-54.12,48.85-5,101.35-2.89,143.32,25.65C298.83,33.25,306.68,40.25,311.41,48.61Z"/><path class="m" d="M85,48,66.38,92.87C62.2,103.13,55.08,109.48,46.07,112a2.28,2.28,0,0,1-3-1.61l-2.18-6.45c-.66-1.61,0-2.56,1.52-3,6.17-2.09,10.63-6.64,13-13.48L39.23,48c-.66-1.71.09-2.75,1.9-2.75h8.45A2.81,2.81,0,0,1,52.43,47L62,70.67,71.6,47a2.76,2.76,0,0,1,2.75-1.8H83C84.79,45.23,85.55,46.27,85,48Z"/><path class="m" d="M136.52,47.79V90.12A2.55,2.55,0,0,1,134,92.69h-5.69a2.15,2.15,0,0,1-2.18-2.18V88.7a23.6,23.6,0,0,1-14,4.75,24.49,24.49,0,1,1,0-49,23.9,23.9,0,0,1,14,4.65V47.41a2.15,2.15,0,0,1,2.18-2.18H134A2.55,2.55,0,0,1,136.52,47.79ZM124.28,68.86a12,12,0,1,0-12,12.15A11.91,11.91,0,0,0,124.28,68.86Z"/><path class="m" d="M215.92,65V90.22a2.29,2.29,0,0,1-2.47,2.47H206a2.32,2.32,0,0,1-2.56-2.47V65a8.11,8.11,0,1,0-16.23,0V90.22a2.29,2.29,0,0,1-2.47,2.47h-7.5a2.29,2.29,0,0,1-2.47-2.47V65a8.16,8.16,0,1,0-16.32,0V90.22a2.25,2.25,0,0,1-2.47,2.47h-7.4a2.29,2.29,0,0,1-2.47-2.47V47.7a2.29,2.29,0,0,1,2.47-2.47h5.22a2,2,0,0,1,2.18,2.18v1a18.23,18.23,0,0,1,25,2.09,20.35,20.35,0,0,1,14.52-6.07A20.6,20.6,0,0,1,215.92,65Z"/><path class="m" d="M294.84,65V90.22a2.29,2.29,0,0,1-2.47,2.47h-7.5a2.32,2.32,0,0,1-2.56-2.47V65a8.11,8.11,0,1,0-16.23,0V90.22a2.29,2.29,0,0,1-2.47,2.47h-7.5a2.29,2.29,0,0,1-2.47-2.47V65a8.16,8.16,0,1,0-16.32,0V90.22a2.25,2.25,0,0,1-2.47,2.47h-7.4A2.29,2.29,0,0,1,225,90.22V47.7a2.29,2.29,0,0,1,2.47-2.47h5.22a2,2,0,0,1,2.18,2.18v1a18.23,18.23,0,0,1,25,2.09,20.35,20.35,0,0,1,14.52-6.07A20.6,20.6,0,0,1,294.84,65Z"/></svg>